<?xml version="1.0" encoding="UTF-8" standalone="no"?>

<svg viewBox="-256 -256 1024 1024" version="1.1" id="svg5" xmlns="http://www.w3.org/2000/svg" xmlns:svg="http://www.w3.org/2000/svg">
   <g>
      <rect style="fill:#466328;" width="1024" height="1024" x="-256" y="-256" />

      <ellipse style="fill:#323250;" cx="-74" cy="-74" rx="24" ry="24" />
      <ellipse style="fill:#323250;" cx="-74" cy="-14" rx="24" ry="24" />
      <ellipse style="fill:#323250;" cx="-74" cy="46" rx="24" ry="24" />
      <ellipse style="fill:#323250;" cx="-74" cy="106" rx="24" ry="24" />
      <ellipse style="fill:#323250;" cx="-74" cy="166" rx="24" ry="24" />
      <ellipse style="fill:#323250;" cx="-74" cy="226" rx="24" ry="24" />
      <ellipse style="fill:#323250;" cx="-74" cy="286" rx="24" ry="24" />
      <ellipse style="fill:#323250;" cx="-74" cy="346" rx="24" ry="24" />
      <ellipse style="fill:#323250;" cx="-74" cy="406" rx="24" ry="24" />
      <ellipse style="fill:#323250;" cx="-74" cy="466" rx="24" ry="24" />
      <ellipse style="fill:#323250;" cx="-74" cy="526" rx="24" ry="24" />
      <ellipse style="fill:#323250;" cx="-74" cy="586" rx="24" ry="24" />

      <ellipse style="fill:#323250;" cx="-14" cy="-74" rx="24" ry="24" />
      <ellipse style="fill:#323250;" cx="-14" cy="-14" rx="24" ry="24" />
      <ellipse style="fill:#323250;" cx="-14" cy="46" rx="24" ry="24" />
      <ellipse style="fill:#323250;" cx="-14" cy="106" rx="24" ry="24" />
      <ellipse style="fill:#323250;" cx="-14" cy="166" rx="24" ry="24" />
      <ellipse style="fill:#323250;" cx="-14" cy="226" rx="24" ry="24" />
      <ellipse style="fill:#323250;" cx="-14" cy="286" rx="24" ry="24" />
      <ellipse style="fill:#323250;" cx="-14" cy="346" rx="24" ry="24" />
      <ellipse style="fill:#323250;" cx="-14" cy="406" rx="24" ry="24" />
      <ellipse style="fill:#323250;" cx="-14" cy="466" rx="24" ry="24" />
      <ellipse style="fill:#323250;" cx="-14" cy="526" rx="24" ry="24" />
      <ellipse style="fill:#323250;" cx="-14" cy="586" rx="24" ry="24" />

      <ellipse style="fill:#323250;" cx="46" cy="-74" rx="24" ry="24" />
      <ellipse style="fill:#323250;" cx="46" cy="-14" rx="24" ry="24" />
      <ellipse style="fill:#323250;" cx="46" cy="46" rx="24" ry="24" />
      <ellipse style="fill:#323250;" cx="46" cy="106" rx="24" ry="24" />
      <ellipse style="fill:#323250;" cx="46" cy="166" rx="24" ry="24" />
      <ellipse style="fill:#323250;" cx="46" cy="226" rx="24" ry="24" />
      <ellipse style="fill:#323250;" cx="46" cy="286" rx="24" ry="24" />
      <ellipse style="fill:#323250;" cx="46" cy="346" rx="24" ry="24" />
      <ellipse style="fill:#323250;" cx="46" cy="406" rx="24" ry="24" />
      <ellipse style="fill:#323250;" cx="46" cy="466" rx="24" ry="24" />
      <ellipse style="fill:#323250;" cx="46" cy="526" rx="24" ry="24" />
      <ellipse style="fill:#323250;" cx="46" cy="586" rx="24" ry="24" />

      <ellipse style="fill:#323250;" cx="106" cy="-74" rx="24" ry="24" />
      <ellipse style="fill:#323250;" cx="106" cy="-14" rx="24" ry="24" />
      <ellipse style="fill:#323250;" cx="106" cy="46" rx="24" ry="24" />
      <ellipse style="fill:#ffffff;" cx="106" cy="106" rx="24" ry="24" />
      <ellipse style="fill:#ffffff;" cx="106" cy="166" rx="24" ry="24" />
      <ellipse style="fill:#ffffff;" cx="106" cy="226" rx="24" ry="24" />
      <ellipse style="fill:#ffffff;" cx="106" cy="286" rx="24" ry="24" />
      <ellipse style="fill:#ffffff;" cx="106" cy="346" rx="24" ry="24" />
      <ellipse style="fill:#ffffff;" cx="106" cy="406" rx="24" ry="24" />
      <ellipse style="fill:#323250;" cx="106" cy="466" rx="24" ry="24" />
      <ellipse style="fill:#323250;" cx="106" cy="526" rx="24" ry="24" />
      <ellipse style="fill:#323250;" cx="106" cy="586" rx="24" ry="24" />

      <ellipse style="fill:#323250;" cx="166" cy="-74" rx="24" ry="24" />
      <ellipse style="fill:#323250;" cx="166" cy="-14" rx="24" ry="24" />
      <ellipse style="fill:#ffffff;" cx="166" cy="46" rx="24" ry="24" />
      <ellipse style="fill:#ffffff;" cx="166" cy="106" rx="24" ry="24" />
      <ellipse style="fill:#ffffff;" cx="166" cy="166" rx="24" ry="24" />
      <ellipse style="fill:#ffffff;" cx="166" cy="226" rx="24" ry="24" />
      <ellipse style="fill:#ffffff;" cx="166" cy="286" rx="24" ry="24" />
      <ellipse style="fill:#ffffff;" cx="166" cy="346" rx="24" ry="24" />
      <ellipse style="fill:#ffffff;" cx="166" cy="406" rx="24" ry="24" />
      <ellipse style="fill:#323250;" cx="166" cy="466" rx="24" ry="24" />
      <ellipse style="fill:#323250;" cx="166" cy="526" rx="24" ry="24" />
      <ellipse style="fill:#323250;" cx="166" cy="586" rx="24" ry="24" />

      <ellipse style="fill:#323250;" cx="226" cy="-74" rx="24" ry="24" />
      <ellipse style="fill:#323250;" cx="226" cy="-14" rx="24" ry="24" />
      <ellipse style="fill:#323250;" cx="226" cy="46" rx="24" ry="24" />
      <ellipse style="fill:#323250;" cx="226" cy="106" rx="24" ry="24" />
      <ellipse style="fill:#323250;" cx="226" cy="166" rx="24" ry="24" />
      <ellipse style="fill:#ffffff;" cx="226" cy="226" rx="24" ry="24" />
      <ellipse style="fill:#ffffff;" cx="226" cy="286" rx="24" ry="24" />
      <ellipse style="fill:#323250;" cx="226" cy="346" rx="24" ry="24" />
      <ellipse style="fill:#323250;" cx="226" cy="406" rx="24" ry="24" />
      <ellipse style="fill:#323250;" cx="226" cy="466" rx="24" ry="24" />
      <ellipse style="fill:#323250;" cx="226" cy="526" rx="24" ry="24" />
      <ellipse style="fill:#323250;" cx="226" cy="586" rx="24" ry="24" />

      <ellipse style="fill:#323250;" cx="286" cy="-74" rx="24" ry="24" />
      <ellipse style="fill:#323250;" cx="286" cy="-14" rx="24" ry="24" />
      <ellipse style="fill:#323250;" cx="286" cy="46" rx="24" ry="24" />
      <ellipse style="fill:#323250;" cx="286" cy="106" rx="24" ry="24" />
      <ellipse style="fill:#323250;" cx="286" cy="166" rx="24" ry="24" />
      <ellipse style="fill:#ffffff;" cx="286" cy="226" rx="24" ry="24" />
      <ellipse style="fill:#ffffff;" cx="286" cy="286" rx="24" ry="24" />
      <ellipse style="fill:#323250;" cx="286" cy="346" rx="24" ry="24" />
      <ellipse style="fill:#323250;" cx="286" cy="406" rx="24" ry="24" />
      <ellipse style="fill:#323250;" cx="286" cy="466" rx="24" ry="24" />
      <ellipse style="fill:#323250;" cx="286" cy="526" rx="24" ry="24" />
      <ellipse style="fill:#323250;" cx="286" cy="586" rx="24" ry="24" />

      <ellipse style="fill:#323250;" cx="346" cy="-74" rx="24" ry="24" />
      <ellipse style="fill:#323250;" cx="346" cy="-14" rx="24" ry="24" />
      <ellipse style="fill:#323250;" cx="346" cy="46" rx="24" ry="24" />
      <ellipse style="fill:#323250;" cx="346" cy="106" rx="24" ry="24" />
      <ellipse style="fill:#323250;" cx="346" cy="166" rx="24" ry="24" />
      <ellipse style="fill:#ffffff;" cx="346" cy="226" rx="24" ry="24" />
      <ellipse style="fill:#ffffff;" cx="346" cy="286" rx="24" ry="24" />
      <ellipse style="fill:#ffffff;" cx="346" cy="346" rx="24" ry="24" />
      <ellipse style="fill:#ffffff;" cx="346" cy="406" rx="24" ry="24" />
      <ellipse style="fill:#323250;" cx="346" cy="466" rx="24" ry="24" />
      <ellipse style="fill:#323250;" cx="346" cy="526" rx="24" ry="24" />
      <ellipse style="fill:#323250;" cx="346" cy="586" rx="24" ry="24" />

      <ellipse style="fill:#323250;" cx="406" cy="-74" rx="24" ry="24" />
      <ellipse style="fill:#323250;" cx="406" cy="-14" rx="24" ry="24" />
      <ellipse style="fill:#323250;" cx="406" cy="46" rx="24" ry="24" />
      <ellipse style="fill:#323250;" cx="406" cy="106" rx="24" ry="24" />
      <ellipse style="fill:#323250;" cx="406" cy="166" rx="24" ry="24" />
      <ellipse style="fill:#323250;" cx="406" cy="226" rx="24" ry="24" />
      <ellipse style="fill:#ffffff;" cx="406" cy="286" rx="24" ry="24" />
      <ellipse style="fill:#ffffff;" cx="406" cy="346" rx="24" ry="24" />
      <ellipse style="fill:#ffffff;" cx="406" cy="406" rx="24" ry="24" />
      <ellipse style="fill:#323250;" cx="406" cy="466" rx="24" ry="24" />
      <ellipse style="fill:#323250;" cx="406" cy="526" rx="24" ry="24" />
      <ellipse style="fill:#323250;" cx="406" cy="586" rx="24" ry="24" />

      <ellipse style="fill:#323250;" cx="466" cy="-74" rx="24" ry="24" />
      <ellipse style="fill:#323250;" cx="466" cy="-14" rx="24" ry="24" />
      <ellipse style="fill:#323250;" cx="466" cy="46" rx="24" ry="24" />
      <ellipse style="fill:#323250;" cx="466" cy="106" rx="24" ry="24" />
      <ellipse style="fill:#323250;" cx="466" cy="166" rx="24" ry="24" />
      <ellipse style="fill:#323250;" cx="466" cy="226" rx="24" ry="24" />
      <ellipse style="fill:#323250;" cx="466" cy="286" rx="24" ry="24" />
      <ellipse style="fill:#323250;" cx="466" cy="346" rx="24" ry="24" />
      <ellipse style="fill:#323250;" cx="466" cy="406" rx="24" ry="24" />
      <ellipse style="fill:#323250;" cx="466" cy="466" rx="24" ry="24" />
      <ellipse style="fill:#323250;" cx="466" cy="526" rx="24" ry="24" />
      <ellipse style="fill:#323250;" cx="466" cy="586" rx="24" ry="24" />

      <ellipse style="fill:#323250;" cx="526" cy="-74" rx="24" ry="24" />
      <ellipse style="fill:#323250;" cx="526" cy="-14" rx="24" ry="24" />
      <ellipse style="fill:#323250;" cx="526" cy="46" rx="24" ry="24" />
      <ellipse style="fill:#323250;" cx="526" cy="106" rx="24" ry="24" />
      <ellipse style="fill:#323250;" cx="526" cy="166" rx="24" ry="24" />
      <ellipse style="fill:#323250;" cx="526" cy="226" rx="24" ry="24" />
      <ellipse style="fill:#323250;" cx="526" cy="286" rx="24" ry="24" />
      <ellipse style="fill:#323250;" cx="526" cy="346" rx="24" ry="24" />
      <ellipse style="fill:#323250;" cx="526" cy="406" rx="24" ry="24" />
      <ellipse style="fill:#323250;" cx="526" cy="466" rx="24" ry="24" />
      <ellipse style="fill:#323250;" cx="526" cy="526" rx="24" ry="24" />
      <ellipse style="fill:#323250;" cx="526" cy="586" rx="24" ry="24" />

      <ellipse style="fill:#323250;" cx="586" cy="-74" rx="24" ry="24" />
      <ellipse style="fill:#323250;" cx="586" cy="-14" rx="24" ry="24" />
      <ellipse style="fill:#323250;" cx="586" cy="46" rx="24" ry="24" />
      <ellipse style="fill:#323250;" cx="586" cy="106" rx="24" ry="24" />
      <ellipse style="fill:#323250;" cx="586" cy="166" rx="24" ry="24" />
      <ellipse style="fill:#323250;" cx="586" cy="226" rx="24" ry="24" />
      <ellipse style="fill:#323250;" cx="586" cy="286" rx="24" ry="24" />
      <ellipse style="fill:#323250;" cx="586" cy="346" rx="24" ry="24" />
      <ellipse style="fill:#323250;" cx="586" cy="406" rx="24" ry="24" />
      <ellipse style="fill:#323250;" cx="586" cy="466" rx="24" ry="24" />
      <ellipse style="fill:#323250;" cx="586" cy="526" rx="24" ry="24" />
      <ellipse style="fill:#323250;" cx="586" cy="586" rx="24" ry="24" />
   </g>
</svg>