<?xml version="1.0" encoding="UTF-8" standalone="no"?>

<svg viewBox="-256 -256 1024 1024" version="1.1" id="svg5" xmlns="http://www.w3.org/2000/svg" xmlns:svg="http://www.w3.org/2000/svg">
   <g>
      <rect style="fill:#466328;" width="1024" height="1024" x="-256" y="-256" />

      <ellipse style="fill:#ffffff;" cx="106" cy="106" rx="24" ry="24" />
      <ellipse style="fill:#ffffff;" cx="106" cy="166" rx="24" ry="24" />
      <ellipse style="fill:#ffffff;" cx="106" cy="226" rx="24" ry="24" />
      <ellipse style="fill:#ffffff;" cx="106" cy="286" rx="24" ry="24" />
      <ellipse style="fill:#ffffff;" cx="106" cy="346" rx="24" ry="24" />
      <ellipse style="fill:#ffffff;" cx="106" cy="406" rx="24" ry="24" />

      <ellipse style="fill:#ffffff;" cx="166" cy="46" rx="24" ry="24" />
      <ellipse style="fill:#ffffff;" cx="166" cy="106" rx="24" ry="24" />
      <ellipse style="fill:#ffffff;" cx="166" cy="166" rx="24" ry="24" />
      <ellipse style="fill:#ffffff;" cx="166" cy="226" rx="24" ry="24" />
      <ellipse style="fill:#ffffff;" cx="166" cy="286" rx="24" ry="24" />
      <ellipse style="fill:#ffffff;" cx="166" cy="346" rx="24" ry="24" />
      <ellipse style="fill:#ffffff;" cx="166" cy="406" rx="24" ry="24" />

      <ellipse style="fill:#ffffff;" cx="226" cy="226" rx="24" ry="24" />
      <ellipse style="fill:#ffffff;" cx="226" cy="286" rx="24" ry="24" />

      <ellipse style="fill:#ffffff;" cx="286" cy="226" rx="24" ry="24" />
      <ellipse style="fill:#ffffff;" cx="286" cy="286" rx="24" ry="24" />

      <ellipse style="fill:#ffffff;" cx="346" cy="226" rx="24" ry="24" />
      <ellipse style="fill:#ffffff;" cx="346" cy="286" rx="24" ry="24" />
      <ellipse style="fill:#ffffff;" cx="346" cy="346" rx="24" ry="24" />
      <ellipse style="fill:#ffffff;" cx="346" cy="406" rx="24" ry="24" />

      <ellipse style="fill:#ffffff;" cx="406" cy="286" rx="24" ry="24" />
      <ellipse style="fill:#ffffff;" cx="406" cy="346" rx="24" ry="24" />
      <ellipse style="fill:#ffffff;" cx="406" cy="406" rx="24" ry="24" />
   </g>
</svg>